<svg width="32" height="32" viewBox="0 0 32 32" fill="none" xmlns="http://www.w3.org/2000/svg">
<g id="Frame" clip-path="url(#clip0_814_180)">
<path id="Vector" d="M20.4004 7.39983C19.387 7.39966 18.414 7.79732 17.6909 8.50725C16.9677 9.21718 16.5522 10.1826 16.5337 11.1958L16.4964 13.2958C16.4942 13.4086 16.4682 13.5196 16.4201 13.6216C16.372 13.7236 16.3028 13.8143 16.2172 13.8877C16.1316 13.9611 16.0314 14.0155 15.9233 14.0475C15.8151 14.0795 15.7015 14.0882 15.5897 14.0732L13.5084 13.7905C10.7697 13.4172 8.14569 12.1558 5.62835 10.0585C4.83102 14.4718 6.38835 17.5292 10.139 19.8878L12.4684 21.3518C12.579 21.4214 12.671 21.517 12.7361 21.6303C12.8013 21.7436 12.8377 21.8712 12.8422 22.0018C12.8467 22.1324 12.8191 22.2622 12.7618 22.3797C12.7045 22.4972 12.6193 22.5989 12.5137 22.6758L10.391 24.2265C11.6537 24.3052 12.8524 24.2492 13.847 24.0518C20.1377 22.7958 24.3204 18.0625 24.3204 10.2545C24.3204 9.61716 22.971 7.39983 20.4004 7.39983ZM13.867 11.1465C13.8903 9.86123 14.2922 8.61139 15.0224 7.55346C15.7527 6.49553 16.7788 5.67652 17.9722 5.19898C19.1657 4.72145 20.4736 4.6066 21.732 4.86882C22.9905 5.13105 24.1436 5.75869 25.047 6.67316C25.995 6.66649 26.8017 6.90649 28.6057 5.81316C28.159 7.99983 27.939 8.94916 26.987 10.2545C26.987 20.4438 20.7244 25.3985 14.3697 26.6665C10.0124 27.5358 3.67635 26.1078 1.86035 24.2118C2.78568 24.1398 6.54569 23.7358 8.71902 22.1452C6.88035 20.9332 -0.438315 16.6265 4.37102 5.04783C6.62835 7.68383 8.91769 9.47849 11.2377 10.4305C12.7817 11.0638 13.1604 11.0505 13.8684 11.1478L13.867 11.1465Z" fill="white"/>
</g>
<defs>
<clipPath id="clip0_814_180">
<rect width="32" height="32" fill="white"/>
</clipPath>
</defs>
</svg>
