<svg width="22" height="22" viewBox="0 0 22 22" fill="none" xmlns="http://www.w3.org/2000/svg">
<g id="Star">
<path id="Vector" d="M9.95407 3.21979C10.2841 2.20669 11.7174 2.20669 12.0463 3.21979L13.2233 6.84099C13.2952 7.06152 13.435 7.25368 13.6226 7.39C13.8103 7.52632 14.0363 7.59982 14.2683 7.59999H18.0765C19.1424 7.59999 19.5846 8.96399 18.7233 9.59099L15.6433 11.8284C15.4552 11.9648 15.3152 12.1573 15.2432 12.3782C15.1713 12.5992 15.1712 12.8372 15.2429 13.0582L16.4199 16.6794C16.7499 17.6925 15.5894 18.5362 14.7259 17.9092L11.6459 15.6718C11.458 15.5354 11.2318 15.4619 10.9996 15.4619C10.7675 15.4619 10.5412 15.5354 10.3534 15.6718L7.27337 17.9092C6.41097 18.5362 5.25157 17.6925 5.58047 16.6794L6.75747 13.0582C6.82916 12.8372 6.82903 12.5992 6.7571 12.3782C6.68517 12.1573 6.54513 11.9648 6.35707 11.8284L3.27817 9.59209C2.41687 8.96509 2.86017 7.60109 3.92497 7.60109H7.73207C7.96422 7.60115 8.19044 7.52776 8.37834 7.39142C8.56625 7.25509 8.7062 7.0628 8.77817 6.84209L9.95517 3.22089L9.95407 3.21979Z" fill="#FFF615"/>
</g>
</svg>
